<!DOCTYPE svg PUBLIC "-//W3C//DTD SVG 20010904//EN" "http://www.w3.org/TR/2001/REC-SVG-20010904/DTD/svg10.dtd">
<svg version="1.0" xmlns="http://www.w3.org/2000/svg" width="1200px" height="1200px" viewBox="0 0 12000 12000" preserveAspectRatio="xMidYMid meet">
<g id="layer101" fill="#000000" stroke="none">
</g>
<g id="layer102" fill="#a8a8a8" stroke="none">
<path d="M4280 8926 c0 -22 4 -23 88 -29 191 -13 308 -59 418 -164 78 -75 113 -133 138 -234 14 -59 16 -217 15 -1665 -1 -879 -5 -2011 -8 -2514 l-6 -915 -821 1 c-915 0 -854 -4 -969 70 -187 120 -259 243 -272 461 l-6 101 -28 4 -29 5 0 -432 c0 -238 -3 -460 -6 -494 -8 -73 -13 -72 131 -37 55 14 141 34 190 45 303 68 74 61 2031 61 1115 0 1799 -4 1869 -10 157 -15 318 -45 424 -80 51 -16 97 -30 102 -30 5 0 9 202 9 490 l0 490 -28 0 -29 0 -7 -107 c-13 -213 -46 -303 -152 -410 -43 -43 -85 -74 -135 -98 l-73 -35 -843 0 -843 0 1 2238 c1 1230 4 2383 8 2562 l6 325 33 68 c46 93 143 194 230 240 79 42 210 71 288 65 54 -5 54 -4 54 24 l0 28 -890 0 -890 0 0 -24z"/>
</g>
<g id="layer103" fill="#a0dca2" stroke="none">
<path d="M1150 11074 c-14 -3 -79 -14 -145 -25 -66 -11 -122 -23 -124 -25 -3 -2 3 -20 13 -40 13 -29 21 -35 39 -31 178 44 428 26 650 -47 300 -99 609 -308 821 -556 257 -300 453 -592 617 -921 83 -165 169 -373 169 -407 0 -11 -16 -64 -36 -118 -20 -55 -39 -110 -43 -124 -5 -14 -42 -119 -84 -235 -41 -115 -112 -313 -157 -440 -45 -126 -90 -252 -100 -280 -19 -52 -121 -339 -260 -730 -45 -126 -90 -252 -100 -280 -19 -52 -121 -339 -260 -730 -45 -126 -90 -252 -100 -280 -10 -27 -55 -153 -100 -280 -45 -126 -90 -252 -100 -280 -10 -27 -46 -129 -80 -225 -34 -96 -70 -197 -80 -225 -45 -123 -181 -508 -205 -585 -102 -317 -239 -584 -373 -731 -59 -64 -178 -138 -282 -175 -69 -25 -88 -27 -237 -28 l-163 -1 0 -57 0 -58 753 0 c413 0 870 3 1015 7 l262 6 0 34 0 33 -57 0 c-166 1 -310 86 -371 218 -24 53 -26 68 -26 197 l-1 140 74 230 c88 276 143 451 365 1160 31 99 82 259 112 355 107 339 173 548 254 805 45 143 108 343 140 445 32 102 95 302 140 445 281 895 321 1018 330 1009 4 -5 36 -97 69 -204 34 -107 68 -213 76 -235 13 -36 229 -709 325 -1010 78 -243 111 -347 215 -670 129 -401 175 -544 225 -700 21 -66 84 -262 140 -435 56 -173 119 -369 140 -435 21 -66 48 -145 59 -175 l20 -55 1 629 0 630 -39 115 c-22 64 -85 258 -141 431 -55 173 -110 340 -120 370 -21 63 -94 287 -240 740 -55 173 -110 340 -120 370 -10 30 -64 197 -120 370 -56 173 -110 340 -120 370 -10 30 -55 170 -100 310 -234 728 -261 808 -328 950 -134 287 -304 523 -551 770 -255 254 -610 498 -866 594 -207 78 -321 98 -570 101 -110 2 -211 1 -225 -1z"/>
<path d="M6948 9699 c-10 -5 -24 -31 -32 -57 -8 -26 -26 -78 -40 -117 -80 -228 -258 -734 -306 -870 -21 -60 -66 -189 -100 -285 -34 -96 -79 -224 -100 -285 -46 -132 -135 -385 -220 -625 -34 -96 -79 -224 -100 -285 -21 -60 -59 -168 -85 -240 -26 -71 -52 -148 -60 -170 -7 -22 -41 -119 -75 -215 -34 -96 -88 -251 -121 -344 l-59 -170 7 -888 c3 -489 10 -883 14 -876 5 7 315 858 691 1890 375 1033 685 1875 689 1870 3 -4 30 -86 59 -182 53 -180 133 -444 225 -750 29 -96 63 -209 75 -250 12 -41 39 -131 60 -200 21 -69 48 -159 60 -200 12 -41 46 -154 75 -250 164 -543 165 -545 260 -875 24 -82 55 -188 68 -235 325 -1114 691 -2183 845 -2470 535 -997 1430 -1605 2472 -1680 91 -7 190 -10 220 -8 l55 3 3 46 3 47 -118 7 c-391 22 -775 170 -1121 432 -113 86 -138 108 -288 258 -145 145 -207 215 -308 349 -253 336 -466 722 -641 1161 -41 104 -107 293 -265 765 -38 113 -173 513 -300 890 -127 377 -264 784 -305 905 -325 970 -491 1451 -545 1575 -362 840 -600 1675 -627 2195 -7 142 -17 163 -65 134z"/>
</g>


</svg>